<svg width="83" height="66" viewBox="0 0 83 66" fill="none" xmlns="http://www.w3.org/2000/svg">
<path d="M77.075 0.899902V14.4999H69.275C63.1417 14.4999 60.075 17.5666 60.075 23.6999V30.0999H63.475C68.8083 30.0999 73.2083 31.6999 76.675 34.8999C80.275 38.0999 82.075 42.1666 82.075 47.0999C82.075 52.4332 80.275 56.7666 76.675 60.0999C73.2083 63.4332 68.8083 65.0999 63.475 65.0999C58.0083 65.0999 53.5417 63.4332 50.075 60.0999C46.6083 56.6332 44.875 52.0332 44.875 46.2999V23.2999C44.875 8.36657 52.3417 0.899902 67.275 0.899902H77.075ZM33.075 0.899902V14.4999H25.275C19.1417 14.4999 16.075 17.5666 16.075 23.6999V30.0999H19.475C24.8083 30.0999 29.2083 31.6999 32.675 34.8999C36.275 38.0999 38.075 42.1666 38.075 47.0999C38.075 52.4332 36.275 56.7666 32.675 60.0999C29.2083 63.4332 24.8083 65.0999 19.475 65.0999C14.0083 65.0999 9.54167 63.4332 6.075 60.0999C2.60833 56.6332 0.875 52.0332 0.875 46.2999V23.2999C0.875 8.36657 8.34167 0.899902 23.275 0.899902H33.075Z" fill="#F1DCC0"/>
<path d="M77.075 0.899902V14.4999H69.275C63.1417 14.4999 60.075 17.5666 60.075 23.6999V30.0999H63.475C68.8083 30.0999 73.2083 31.6999 76.675 34.8999C80.275 38.0999 82.075 42.1666 82.075 47.0999C82.075 52.4332 80.275 56.7666 76.675 60.0999C73.2083 63.4332 68.8083 65.0999 63.475 65.0999C58.0083 65.0999 53.5417 63.4332 50.075 60.0999C46.6083 56.6332 44.875 52.0332 44.875 46.2999V23.2999C44.875 8.36657 52.3417 0.899902 67.275 0.899902H77.075ZM33.075 0.899902V14.4999H25.275C19.1417 14.4999 16.075 17.5666 16.075 23.6999V30.0999H19.475C24.8083 30.0999 29.2083 31.6999 32.675 34.8999C36.275 38.0999 38.075 42.1666 38.075 47.0999C38.075 52.4332 36.275 56.7666 32.675 60.0999C29.2083 63.4332 24.8083 65.0999 19.475 65.0999C14.0083 65.0999 9.54167 63.4332 6.075 60.0999C2.60833 56.6332 0.875 52.0332 0.875 46.2999V23.2999C0.875 8.36657 8.34167 0.899902 23.275 0.899902H33.075Z" fill="#E46030"/>
</svg>
