<svg width="63" height="40" viewBox="0 0 63 40" fill="none" xmlns="http://www.w3.org/2000/svg">
<path fill-rule="evenodd" clip-rule="evenodd" d="M7 0.197754C3.13401 0.197754 0 3.33176 0 7.19775V32.1978C0 36.0637 3.13401 39.1978 7 39.1978H55.941C59.8299 39.1978 62.9734 36.0278 62.9407 32.139L62.7804 13.0398C62.7481 9.19683 59.6237 6.09853 55.7806 6.09853H26.6645C24.8807 6.09853 23.9742 4.7658 23.0111 3.34984C22.2866 2.28462 21.53 1.17229 20.3438 0.544858C19.6875 0.197754 19.0312 0.197754 18.7031 0.197754H12.1406H7ZM53.7555 24.8529C53.7555 31.3046 48.4241 36.5347 41.8476 36.5347C35.2711 36.5347 29.9398 31.3046 29.9398 24.8529C29.9398 18.4013 35.2711 13.1712 41.8476 13.1712C48.4241 13.1712 53.7555 18.4013 53.7555 24.8529ZM42.1352 32.0815V35.1737H41.1145L41.1145 29.6764C41.1145 29.6764 41.1145 31.3943 39.0732 31.7376C38.3927 31.6231 37.304 30.7069 38.3927 27.9582C37.1452 28.8745 34.3781 30.2946 33.2893 28.6454C31.9284 26.5839 32.6089 24.1788 37.0318 23.8352C35.4441 23.4917 32.2686 21.4302 33.6296 19.3687C35.5262 16.4957 38.3039 19.5546 38.9611 20.2783L38.9613 20.2785C39.0114 20.3336 39.0491 20.3752 39.0732 20.3995C38.3927 19.0254 39.0051 14.9711 41.4547 15.2459C43.4961 15.475 44.1765 18.682 43.1559 20.7433C44.0631 19.5982 46.4605 17.1683 48.2592 18.6818C50.3006 20.3995 48.2592 23.3172 45.5374 23.8352C47.1251 23.9499 50.2325 24.5227 49.9603 27.2713C49.5861 31.0507 44.5168 28.3021 44.5168 28.3021C44.5168 28.3021 46.2179 31.3943 44.1765 32.4251C42.8156 33.1122 42.1352 32.0815 42.1352 32.0815ZM41.4548 27.615C43.1459 27.615 44.5168 26.2305 44.5168 24.5227C44.5168 22.8149 43.1459 21.4305 41.4548 21.4305C39.7637 21.4305 38.3928 22.8149 38.3928 24.5227C38.3928 26.2305 39.7637 27.615 41.4548 27.615Z" fill="#C34117"/>
</svg>
