<svg width="50" height="51" viewBox="0 0 50 51" fill="none" xmlns="http://www.w3.org/2000/svg">
<path d="M25 0.540039C11.2063 0.540039 0 11.7464 0 25.54C0 38.0618 9.23583 48.4245 21.2646 50.2315L22.5697 50.4291V30.7291H16.6637V26.7297H22.5697V21.4185C22.5697 18.148 23.3545 15.9939 24.6538 14.6425C25.953 13.2911 27.8727 12.6095 30.5442 12.6095C32.6804 12.6095 33.5114 12.7389 34.3018 12.8358V16.1096H31.5208C29.9428 16.1096 28.6482 16.9899 27.9763 18.1626C27.3044 19.3352 27.0952 20.7353 27.0952 22.162V26.7274H34.0532L33.4339 30.7269H27.0952V50.4601L28.3847 50.2848C40.5845 48.6302 50 38.1842 50 25.54C50 11.7464 38.7937 0.540039 25 0.540039ZM25 2.81277C37.5654 2.81277 47.7273 12.9746 47.7273 25.54C47.7273 36.5966 39.8134 45.6898 29.3679 47.7369V32.9996H35.3826L36.7032 24.4547H29.3679V22.162C29.3679 20.9831 29.5836 19.9267 29.9472 19.2923C30.3107 18.6578 30.6612 18.3823 31.5208 18.3823H36.5745V10.7784L35.589 10.6452C34.9075 10.553 33.3514 10.3367 30.5442 10.3367C27.4725 10.3367 24.8359 11.1735 23.0158 13.0667C21.1957 14.9598 20.297 17.7788 20.297 21.4185V24.4569H14.391V33.0019H20.297V47.6658C10.0193 45.4887 2.27273 36.4769 2.27273 25.54C2.27273 12.9746 12.4346 2.81277 25 2.81277Z" fill="#C34117"/>
</svg>
