<svg width="50" height="51" viewBox="0 0 50 51" fill="none" xmlns="http://www.w3.org/2000/svg">
<g clip-path="url(#clip0_75_74)">
<path d="M14.6183 0.793945C6.54837 0.793945 -0.083374 7.3389 -0.083374 15.3227V35.677C-0.083374 43.652 6.5395 50.2057 14.6183 50.2057H35.2149C43.2849 50.2057 49.9166 43.6608 49.9166 35.677V15.3227C49.9166 7.34767 43.2938 0.793945 35.2149 0.793945H14.6183ZM14.6183 5.28592H35.2149C40.8346 5.28592 45.3712 9.76913 45.3712 15.3227V35.677C45.3712 41.2305 40.8346 45.7137 35.2149 45.7137H14.6183C8.99866 45.7137 4.46208 41.2305 4.46208 35.677V15.3227C4.46208 9.76913 8.99866 5.28592 14.6183 5.28592ZM38.3399 10.199C37.1947 10.199 36.2803 11.1027 36.2803 12.2345C36.2803 13.3662 37.1947 14.2699 38.3399 14.2699C39.4852 14.2699 40.3996 13.3662 40.3996 12.2345C40.3996 11.1027 39.4852 10.199 38.3399 10.199ZM24.9166 12.0239C17.4149 12.0239 11.2803 18.0863 11.2803 25.4998C11.2803 32.9133 17.4149 38.9758 24.9166 38.9758C32.4184 38.9758 38.553 32.9133 38.553 25.4998C38.553 18.0863 32.4184 12.0239 24.9166 12.0239ZM24.9166 16.5159C29.9681 16.5159 34.0075 20.5078 34.0075 25.4998C34.0075 30.4919 29.9681 34.4838 24.9166 34.4838C19.8651 34.4838 15.8257 30.4919 15.8257 25.4998C15.8257 20.5078 19.8651 16.5159 24.9166 16.5159Z" fill="#C34117"/>
</g>
<defs>
<clipPath id="clip0_75_74">
<rect width="50" height="50" fill="white" transform="translate(0 0.5)"/>
</clipPath>
</defs>
</svg>
