<svg width="50" height="51" viewBox="0 0 50 51" fill="none" xmlns="http://www.w3.org/2000/svg">
<path d="M45.4545 0.5H4.54545C2.03409 0.5 0 2.53409 0 5.04545V45.9545C0 48.4659 2.03409 50.5 4.54545 50.5H45.4545C47.9659 50.5 50 48.4659 50 45.9545V5.04545C50 2.53409 47.9659 0.5 45.4545 0.5ZM15.8045 41.4091H9.1V19.8364H15.8045V41.4091ZM12.3841 16.7523C10.2227 16.7523 8.475 15 8.475 12.8432C8.475 10.6864 10.225 8.93636 12.3841 8.93636C14.5386 8.93636 16.2909 10.6886 16.2909 12.8432C16.2909 15 14.5386 16.7523 12.3841 16.7523ZM40.9182 41.4091H34.2182V30.9182C34.2182 28.4159 34.1727 25.1977 30.7341 25.1977C27.2455 25.1977 26.7091 27.9227 26.7091 30.7364V41.4091H20.0091V19.8364H26.4409V22.7841H26.5318C27.4273 21.0886 29.6136 19.3 32.875 19.3C39.6636 19.3 40.9182 23.7682 40.9182 29.5773V41.4091Z" fill="#C34117"/>
</svg>
