<svg width="45" height="45" viewBox="0 0 45 45" fill="none" xmlns="http://www.w3.org/2000/svg">
<path d="M11.499 8.40747H33.7207V3.29883C33.7207 3.26953 33.7134 3.24023 33.7061 3.21826C33.6951 3.19263 33.6768 3.16699 33.6585 3.14868L33.6548 3.14502C33.6365 3.12305 33.6108 3.1084 33.5852 3.09741C33.5596 3.08643 33.5303 3.08276 33.501 3.08276H2.8125C2.7832 3.08276 2.75391 3.09009 2.73193 3.09741C2.7063 3.10474 2.68066 3.12305 2.65503 3.14502L2.64771 3.15234C2.63306 3.17065 2.61841 3.19263 2.60742 3.21826C2.59644 3.2439 2.59277 3.26953 2.59277 3.29883V33.9873C2.59277 34.0166 2.6001 34.0459 2.61108 34.0679L2.61475 34.0789C2.62573 34.1008 2.64038 34.1265 2.65869 34.1448C2.68066 34.1667 2.7063 34.1814 2.73193 34.1924L2.73926 34.196C2.76123 34.2034 2.78687 34.2107 2.8125 34.2107H8.68652V11.22C8.68652 10.8428 8.76343 10.4766 8.89893 10.147C9.04175 9.80273 9.25049 9.49146 9.5105 9.23145L9.52515 9.2168C9.7815 8.96411 10.0891 8.75903 10.426 8.61987C10.7593 8.48437 11.1218 8.40747 11.499 8.40747ZM19.0393 28.3C18.6914 27.9851 18.501 27.5566 18.479 27.1172C18.457 26.6814 18.6035 26.2383 18.9185 25.8904C19.2334 25.5425 19.6655 25.352 20.1013 25.3301C20.5334 25.3081 20.9802 25.4546 21.3281 25.7695L24.657 28.7908L32.2668 20.7781C32.5928 20.4375 33.0249 20.2581 33.4644 20.2471C33.9001 20.2361 34.3433 20.3936 34.6838 20.7158C35.0244 21.0417 35.2039 21.4739 35.2148 21.9133C35.2258 22.3491 35.0684 22.7922 34.7461 23.1328L25.5762 32.7825L25.4846 32.7129C25.2722 32.8154 25.0415 32.8704 24.8071 32.8813C24.3787 32.896 23.9429 32.7532 23.6023 32.4419L19.0393 28.3ZM36.3098 8.40747H42.1838C42.561 8.40747 42.9272 8.48437 43.2568 8.62354C43.6011 8.76636 43.9124 8.9751 44.1724 9.23511L44.187 9.24976C44.4397 9.5061 44.6448 9.81006 44.7839 10.147C44.9231 10.4802 44.9963 10.8428 44.9963 11.2236V41.9121C44.9963 42.293 44.9194 42.6555 44.7839 42.9851C44.6411 43.3293 44.4324 43.6406 44.1724 43.9006C43.9124 44.1606 43.6047 44.3694 43.2568 44.5122C42.9236 44.6514 42.561 44.7283 42.1838 44.7283H11.499C11.1218 44.7283 10.7593 44.6514 10.426 44.5159C10.0818 44.373 9.77051 44.1643 9.5105 43.9043C9.25049 43.6443 9.04175 43.333 8.89893 42.9888C8.75977 42.6555 8.68652 42.293 8.68652 41.9158V36.7998H2.8125C2.4353 36.7998 2.06909 36.7229 1.7395 36.5837C1.39526 36.4409 1.08398 36.2322 0.823975 35.9722C0.563965 35.7122 0.355225 35.4009 0.212402 35.0566C0.0769043 34.7271 0 34.3645 0 33.9873V3.29883C0 2.91797 0.0769043 2.55542 0.212402 2.22583C0.355225 1.88159 0.563965 1.57031 0.823975 1.3103C1.08398 1.05029 1.3916 0.841553 1.7395 0.69873C2.07275 0.563232 2.4353 0.486328 2.8125 0.486328H33.4973C33.8782 0.486328 34.2407 0.563232 34.5703 0.69873C34.9146 0.841553 35.2258 1.05029 35.4858 1.3103C35.9985 1.823 36.3135 2.52246 36.3135 3.29883V8.40747H36.3098ZM42.1875 10.9966H11.499C11.4697 10.9966 11.4441 11.0039 11.4185 11.0112C11.3892 11.0222 11.3635 11.0405 11.3452 11.0625L11.3416 11.0662C11.3196 11.0845 11.3049 11.1101 11.2939 11.1357C11.283 11.1614 11.2793 11.187 11.2793 11.2163V41.9048C11.2793 41.9341 11.2866 41.9634 11.2939 41.9854C11.3049 42.011 11.3232 42.0366 11.3452 42.0586L11.3525 42.0659C11.3709 42.0842 11.3965 42.0989 11.4185 42.1062C11.4441 42.1172 11.4697 42.1208 11.499 42.1208H42.1838C42.2131 42.1208 42.2424 42.1135 42.2644 42.1062L42.2717 42.1025C42.2974 42.0916 42.3193 42.0769 42.3377 42.0549C42.356 42.033 42.3743 42.011 42.3853 41.9854L42.3889 41.978C42.3962 41.9561 42.3999 41.9304 42.3999 41.9011V11.2126C42.3999 11.1833 42.3926 11.1577 42.3853 11.1321L42.3816 11.1248C42.3706 11.1028 42.356 11.0808 42.3377 11.0625C42.3157 11.0405 42.29 11.0222 42.2644 11.0112C42.2424 11.0039 42.2168 10.9966 42.1875 10.9966Z" fill="#E2661D"/>
</svg>
