<svg width="45" height="37" viewBox="0 0 45 37" fill="none" xmlns="http://www.w3.org/2000/svg">
<g clip-path="url(#clip0_68_1267)">
<path d="M26.8494 8.42432L10.0565 23.6731M33.2572 14.8321L17.3482 31.3305M10.0565 23.6731L9.2523 24.4033C8.186 25.3716 7.3867 26.5978 6.93123 27.9642L4.09058 36.4862L13.1375 34.0027C14.592 33.6035 15.912 32.8198 16.959 31.7341L17.3482 31.3305M10.0565 23.6731L17.3482 31.3305" stroke="#E2661D" stroke-width="4.41919"/>
<path d="M36.5385 14.1188L27.686 5.56375C27.4989 5.38294 27.5078 5.08042 27.7051 4.91083L32.1839 1.06157C34.3753 0.228521 35.9065 0.992153 36.3982 1.4781L41.4553 6.89294C42.2982 8.05921 41.8065 9.87805 41.4553 10.6417L37.1235 14.1446C36.95 14.285 36.699 14.2739 36.5385 14.1188Z" fill="#E2661D"/>
</g>
<defs>
<clipPath id="clip0_68_1267">
<rect width="45" height="35.7955" fill="white" transform="translate(0 0.690918)"/>
</clipPath>
</defs>
</svg>
