<svg width="45" height="30" viewBox="0 0 45 30" fill="none" xmlns="http://www.w3.org/2000/svg">
<path d="M32.9069 29.6908C33.3594 27.5297 32.7847 23.3234 32.2541 22.0874C31.7235 20.8513 30.9458 19.7282 29.9654 18.7822C28.9851 17.8361 27.8212 17.0857 26.5403 16.5737C25.2593 16.0617 23.8864 15.7982 22.5 15.7982C21.1135 15.7982 19.7406 16.0617 18.4597 16.5737C17.1788 17.0857 16.0149 17.8361 15.0345 18.7822C14.0541 19.7282 13.2765 20.8513 12.7459 22.0874C12.2153 23.3234 11.6406 28.6103 12.0931 29.6908H32.9069Z" fill="#E2661D"/>
<path d="M28.5403 6.58678C28.5403 10.0061 25.8359 12.7781 22.5 12.7781C19.1641 12.7781 16.4597 10.0061 16.4597 6.58678C16.4597 3.16744 19.1641 0.395508 22.5 0.395508C25.8359 0.395508 28.5403 3.16744 28.5403 6.58678Z" fill="#E2661D"/>
<path d="M12.5336 11.57C12.5336 14.2388 10.3701 16.4022 7.70134 16.4022C5.03258 16.4022 2.86913 14.2388 2.86913 11.57C2.86913 8.90125 5.03258 6.73779 7.70134 6.73779C10.3701 6.73779 12.5336 8.90125 12.5336 11.57Z" fill="#E2661D"/>
<path d="M42.1309 11.57C42.1309 14.2388 39.9674 16.4022 37.2987 16.4022C34.6299 16.4022 32.4664 14.2388 32.4664 11.57C32.4664 8.90125 34.6299 6.73779 37.2987 6.73779C39.9674 6.73779 42.1309 8.90125 42.1309 11.57Z" fill="#E2661D"/>
<path d="M0 29.6908H9.66443C9.66443 24.013 10.5705 21.3855 11.0235 20.7814H5.28523C1.78188 20.6606 0.302013 24.5566 0 26.5197V29.6908Z" fill="#E2661D"/>
<path d="M45 29.5426H35.3356C35.3356 23.8647 34.4295 21.2372 33.9765 20.6332H39.7148C43.2181 20.5123 44.698 24.4083 45 26.3714V29.5426Z" fill="#E2661D"/>
</svg>
