<svg width="150" height="49" viewBox="0 0 150 49" fill="none" xmlns="http://www.w3.org/2000/svg">
<g clip-path="url(#clip0_2_20)">
<mask id="path-1-inside-1_2_20" fill="white">
<path d="M0 0.928589H150V48.0714H0V0.928589Z"/>
</mask>
<path d="M11.1328 12.8931C11.3281 12.8931 11.7188 12.8935 12.1094 13.1001C13.7539 13.9701 14.0116 16.4058 15.8721 16.4058H33.2031C35.4903 16.406 37.3497 18.2495 37.3691 20.5366L37.4648 31.9058C37.4842 34.2205 35.6127 36.1069 33.2979 36.1069H4.16699C1.86589 36.1069 0.000132969 34.242 0 31.9409V17.0601C0 14.7589 1.86581 12.8931 4.16699 12.8931H11.1328ZM24.9092 20.6157C20.9947 20.6158 17.8215 23.7288 17.8213 27.5688C17.8215 31.4089 20.9948 34.5229 24.9092 34.5229C28.8237 34.5229 31.9969 31.409 31.9971 27.5688C31.9969 23.7287 28.8237 20.6157 24.9092 20.6157ZM24.6758 21.8511C25.8905 21.9878 26.2959 23.8967 25.6885 25.1235C26.2286 24.4419 27.655 22.9955 28.7256 23.896C29.94 24.9185 28.7254 26.655 27.1055 26.9634C28.0506 27.0316 29.9003 27.3732 29.7383 29.0093C29.5161 31.2438 26.5344 29.6422 26.498 29.6226C26.5189 29.6608 27.4976 31.4694 26.2959 32.0767C25.5003 32.4782 25.0941 31.8932 25.0801 31.8726V33.7134H24.4727V30.4409C24.4723 30.4769 24.4507 31.4668 23.2578 31.6675C22.8529 31.5993 22.2053 31.0536 22.8525 29.4185C22.1098 29.9637 20.4635 30.8071 19.8154 29.8267C19.0054 28.5996 19.4104 27.1679 22.043 26.9634C21.098 26.7589 19.2084 25.5321 20.0176 24.3052C21.2324 22.465 23.0546 24.7131 23.2578 24.9185C22.853 24.1003 23.2178 21.6875 24.6758 21.8511ZM24.6758 25.5327C23.6693 25.5327 22.8528 26.3562 22.8525 27.3726C22.853 28.3887 23.6694 29.2134 24.6758 29.2134C25.682 29.2132 26.4976 28.3886 26.498 27.3726C26.4978 26.3563 25.6821 25.5329 24.6758 25.5327Z" fill="#C34117"/>
<path d="M53.6635 35V14.5603H65.8105V16.2539H55.5323V23.9042H64.9637V25.5977H55.5323V35H53.6635ZM75.8305 35.4088C74.39 35.4088 73.1247 35.1071 72.0346 34.5036C70.9639 33.8807 70.1269 33.0242 69.5234 31.934C68.9394 30.8245 68.6474 29.5397 68.6474 28.0797V27.7293C68.6474 26.2693 68.9394 24.9943 69.5234 23.9042C70.1269 22.7946 70.9639 21.9381 72.0346 21.3346C73.1247 20.7117 74.39 20.4002 75.8305 20.4002C77.271 20.4002 78.5266 20.7117 79.5973 21.3346C80.6874 21.9381 81.5245 22.7946 82.1084 23.9042C82.7119 24.9943 83.0136 26.2693 83.0136 27.7293V28.0797C83.0136 29.5397 82.7119 30.8245 82.1084 31.934C81.5245 33.0242 80.6874 33.8807 79.5973 34.5036C78.5266 35.1071 77.271 35.4088 75.8305 35.4088ZM75.8305 33.832C77.5046 33.832 78.8284 33.3064 79.8017 32.2552C80.775 31.1846 81.2617 29.7733 81.2617 28.0213V27.7877C81.2617 26.0357 80.775 24.6342 79.8017 23.583C78.8284 22.5123 77.5046 21.977 75.8305 21.977C74.1759 21.977 72.8522 22.5123 71.8594 23.583C70.8861 24.6342 70.3994 26.0357 70.3994 27.7877V28.0213C70.3994 29.7733 70.8861 31.1846 71.8594 32.2552C72.8522 33.3064 74.1759 33.832 75.8305 33.832ZM87.4554 35V14.5603H89.2074V35H87.4554ZM94.3561 35V20.809H96.108V35H94.3561ZM95.232 18.3562C94.8038 18.3562 94.4437 18.2103 94.1517 17.9183C93.8597 17.6263 93.7137 17.2661 93.7137 16.8379C93.7137 16.3901 93.8597 16.03 94.1517 15.7575C94.4437 15.4655 94.8038 15.3195 95.232 15.3195C95.6798 15.3195 96.0399 15.4655 96.3124 15.7575C96.6044 16.03 96.7504 16.3901 96.7504 16.8379C96.7504 17.2661 96.6044 17.6263 96.3124 17.9183C96.0399 18.2103 95.6798 18.3562 95.232 18.3562ZM107.739 35.4088C106.299 35.4088 105.033 35.1071 103.943 34.5036C102.872 33.8807 102.035 33.0242 101.432 31.934C100.848 30.8245 100.556 29.5397 100.556 28.0797V27.7293C100.556 26.2693 100.848 24.9943 101.432 23.9042C102.035 22.7946 102.872 21.9381 103.943 21.3346C105.033 20.7117 106.299 20.4002 107.739 20.4002C109.18 20.4002 110.435 20.7117 111.506 21.3346C112.596 21.9381 113.433 22.7946 114.017 23.9042C114.62 24.9943 114.922 26.2693 114.922 27.7293V28.0797C114.922 29.5397 114.62 30.8245 114.017 31.934C113.433 33.0242 112.596 33.8807 111.506 34.5036C110.435 35.1071 109.18 35.4088 107.739 35.4088ZM107.739 33.832C109.413 33.832 110.737 33.3064 111.71 32.2552C112.684 31.1846 113.17 29.7733 113.17 28.0213V27.7877C113.17 26.0357 112.684 24.6342 111.71 23.583C110.737 22.5123 109.413 21.977 107.739 21.977C106.084 21.977 104.761 22.5123 103.768 23.583C102.795 24.6342 102.308 26.0357 102.308 27.7877V28.0213C102.308 29.7733 102.795 31.1846 103.768 32.2552C104.761 33.3064 106.084 33.832 107.739 33.832ZM121.715 35V22.3858H117.043V20.809H121.715V16.7795C121.715 16.0787 121.9 15.5336 122.27 15.1443C122.659 14.755 123.233 14.5603 123.992 14.5603H127.496V16.1371H124.343C123.759 16.1371 123.467 16.4291 123.467 17.0131V20.809H128.256V22.3858H123.467V35H121.715ZM133.492 40.8399V39.2631H141.785C142.369 39.2631 142.661 38.9711 142.661 38.3871V32.5472H142.31C142.077 33.0144 141.746 33.4622 141.318 33.8904C140.909 34.2992 140.364 34.6399 139.682 34.9124C139.021 35.1655 138.184 35.292 137.171 35.292C136.159 35.292 135.215 35.0779 134.339 34.6496C133.482 34.2213 132.791 33.579 132.266 32.7224C131.76 31.8659 131.507 30.7855 131.507 29.4813V20.809H133.259V29.3645C133.259 30.9023 133.648 32.0119 134.427 32.6932C135.205 33.3746 136.247 33.7152 137.551 33.7152C139.011 33.7152 140.228 33.2383 141.201 32.2844C142.174 31.3306 142.661 29.8803 142.661 27.9337V20.809H144.413V38.6207C144.413 39.3215 144.218 39.8666 143.829 40.2559C143.459 40.6452 142.894 40.8399 142.135 40.8399H133.492Z" fill="#F1DCC0"/>
</g>
<path d="M150 48.0714V47.4762H0V48.0714V48.6667H150V48.0714Z" fill="white" mask="url(#path-1-inside-1_2_20)"/>
<defs>
<clipPath id="clip0_2_20">
<path d="M0 0.928589H150V48.0714H0V0.928589Z" fill="white"/>
</clipPath>
</defs>
</svg>
