<svg width="23" height="25" viewBox="0 0 23 25" fill="none" xmlns="http://www.w3.org/2000/svg">
<g clip-path="url(#clip0_76_648)">
<path fill-rule="evenodd" clip-rule="evenodd" d="M1.42384 1.96515H9.13651V0.782377C9.13651 0.3659 9.47666 0.0251465 9.89374 0.0251465H14.152C14.5688 0.0251465 14.9092 0.365699 14.9092 0.782377V1.96535H22.5278C22.7882 1.96535 23.0005 2.17822 23.0005 2.43842V4.75723H0.951172V2.43822C0.951172 2.17802 1.16364 1.96515 1.42384 1.96515ZM2.70126 5.98733H21.4147C21.8048 5.98733 22.1591 6.30936 22.1238 6.69703L20.5401 24.0628C20.505 24.4507 20.2199 24.7719 19.8306 24.7719H4.26305C3.87356 24.7719 3.58799 24.4513 3.55335 24.0628L1.99156 6.69703C1.95692 6.30795 2.31076 5.98733 2.70126 5.98733ZM14.8627 8.68456H16.8496V21.8382H14.8627V8.68456ZM7.00741 8.68456H8.99453V21.8382H7.00741V8.68456ZM10.9345 8.68456H12.9221V21.8382H10.9345V8.68456Z" fill="white"/>
</g>
<defs>
<clipPath id="clip0_76_648">
<rect width="22.0491" height="24.7469" fill="white" transform="translate(0.951172 0.0251465)"/>
</clipPath>
</defs>
</svg>
