<svg width="25" height="26" viewBox="0 0 25 26" fill="none" xmlns="http://www.w3.org/2000/svg">
<path fill-rule="evenodd" clip-rule="evenodd" d="M20.9958 2.07587L23.8636 4.94364C24.2485 5.32853 24.2485 5.95872 23.8636 6.34561L21.6639 8.5453L17.3942 4.27755L19.5958 2.07587C19.9807 1.69098 20.6109 1.69098 20.9958 2.07587ZM6.16241 4.23766L10.8091 10.8606L16.5586 5.11116L20.8263 9.3809L14.331 15.8782L17.3682 20.2058L15.2762 21.7195L12.0774 18.1338L7.39089 22.8203C7.00599 23.2052 6.3758 23.2052 5.99091 22.8203L3.12115 19.9525C2.73625 19.5676 2.73625 18.9375 3.12115 18.5506L8.05099 13.6207L1.20664 5.94875C-1.88648 2.43883 1.40208 -2.54885 6.16241 4.23766ZM1.78498 19.781L6.07267 24.0667L1.20265 24.8704L1.78498 19.781ZM16.8457 21.7015C18.5349 20.4531 19.7235 20.5787 20.3916 22.0106C20.5491 22.3497 21.0297 23.8015 22.0189 24.5952C22.9901 25.375 24.5077 25.4827 24.5077 25.5305C22.1306 25.7519 12.3706 25.8317 16.8457 21.7015Z" fill="white"/>
</svg>
