<svg width="76" height="71" viewBox="0 0 76 71" fill="none" xmlns="http://www.w3.org/2000/svg">
<path fill-rule="evenodd" clip-rule="evenodd" d="M0.146614 17.6266C-0.0274345 15.8861 0.77319 12.4051 5.36808 12.4051H19.9882C19.9882 12.4051 22.0768 0.395752 28.3426 0.395752H45.0513C46.7917 0.395752 50.2727 1.33562 50.2727 5.09507V12.4051H69.07C70.8105 12.4051 74.3959 13.6583 74.8136 18.6709C75.2313 23.6835 74.9877 32.9429 74.8136 36.946H45.769L45.7693 36.829C45.7736 35.7537 45.7812 33.8131 42.9627 33.8131C40.0649 33.8131 40.1209 35.4541 40.2685 39.7769L40.2686 39.7771C40.3071 40.9067 40.3519 42.2195 40.3519 43.7339H33.0419V36.946C33.0419 35.9017 32.5197 33.8131 30.4312 33.8131C28.3426 33.8131 27.8204 35.3796 27.8204 36.4239H0.146614V17.6266ZM0.146614 41.6453H27.8204V46.3446C27.8204 47.2149 28.3426 48.9554 30.4312 48.9554H44.007C44.4639 48.7813 45.4169 48.0155 45.5734 46.3446C45.7299 44.6738 45.6386 42.5156 45.5734 41.6453H74.8136V65.1419C74.6396 67.0564 73.0383 70.7811 68.0257 70.3634H4.84599C3.27953 70.3634 0.146614 69.5279 0.146614 66.1862V41.6453ZM36.1531 11.8829C41.6322 11.8829 46.0738 10.4802 46.0738 8.74998C46.0738 7.01973 41.6322 5.6171 36.1531 5.6171C30.674 5.6171 26.2323 7.01973 26.2323 8.74998C26.2323 10.4802 30.674 11.8829 36.1531 11.8829Z" fill="#E2651D"/>
</svg>
