<svg width="55" height="71" viewBox="0 0 55 71" fill="none" xmlns="http://www.w3.org/2000/svg">
<path fill-rule="evenodd" clip-rule="evenodd" d="M17.9523 0.960114C8.79064 1.64479 1.30215 9.94551 1.10829 14.6193C0.89051 25.1436 10.5905 23.3306 17.296 22.0773C17.6687 22.0076 18.0322 21.9397 18.3842 21.8757C23.1455 21.0101 29.3256 17.0381 31.773 14.6193C36.2817 18.5199 46.38 17.661 47.7532 16.7535C49.1264 15.846 52.8669 8.81607 41.2747 3.94806C31.3468 -0.221096 26.8042 0.184107 20.6375 0.734179C19.7801 0.810658 18.8913 0.889938 17.9523 0.960114ZM23.9988 49.6209C14.3243 49.2794 13.6332 33.5429 14.497 25.7174C21.0618 25.7174 28.7497 21.4489 31.773 19.3146L41.2747 21.022C47.7532 35.108 40.4109 43.2181 40.4109 43.2181C40.4109 43.2181 36.0919 50.0477 23.9988 49.6209ZM9.31431 24.8637H6.29103L2.40395 31.2664C3.69965 33.1161 6.63655 36.9862 8.01862 37.6692C9.40069 38.3521 10.0341 37.3846 10.1781 36.8155L9.31431 24.8637ZM52.8095 61.5042C54.1325 64.0352 54.4971 67.6562 54.4971 70.3957H26.4831H0.156685C0.156685 69.9717 0.149248 69.5266 0.14158 69.0677C0.0997011 66.5615 0.050941 63.6434 1.1692 61.5042C2.49223 58.9733 4.7999 55.5758 7.24453 53.6387L7.31134 53.5857C9.69124 51.6998 9.81767 51.5996 12.9824 50.5609C14.3796 50.1023 15.3279 50.4664 16.7728 51.0212C18.6309 51.7347 21.3101 52.7634 26.8212 52.7634C32.2258 52.7634 35.3175 51.774 37.5396 51.0629C39.3454 50.485 40.5769 50.0909 42.0089 50.5609C44.7053 51.4459 44.9555 51.6496 46.4388 52.857C46.7125 53.0798 47.0283 53.3369 47.4092 53.6387C49.6543 55.4177 51.2145 58.4283 52.4791 60.8684C52.5915 61.0852 52.7015 61.2976 52.8095 61.5042Z" fill="#E2661D"/>
</svg>
