<svg width="72" height="71" viewBox="0 0 72 71" fill="none" xmlns="http://www.w3.org/2000/svg">
<rect x="2.52226" y="2.79301" width="66.1644" height="65.2055" rx="9.10959" stroke="#E2651D" stroke-width="4.79452"/>
<path d="M37.582 51.3958H33.5825C33.0388 51.3958 32.5948 50.9615 32.5827 50.418L32.1045 28.8958L25.8116 35.1886C25.421 35.5792 24.7879 35.5792 24.3973 35.1886L22.3245 33.1158C21.929 32.7203 21.9348 32.0772 22.3375 31.6889L35.6045 18.8958L48.3486 31.6399C48.7577 32.049 48.7354 32.7187 48.3 33.0996L45.8085 35.2797C45.4123 35.6264 44.8152 35.6065 44.4429 35.2342L38.1045 28.8958L38.5817 50.3735C38.5942 50.9344 38.143 51.3958 37.582 51.3958Z" fill="#E2651D"/>
</svg>
