<svg width="104" height="99" viewBox="0 0 104 99" fill="none" xmlns="http://www.w3.org/2000/svg">
<path d="M65.7892 19.8401L23.567 58.1798M81.9004 35.9512L41.9004 77.4327M23.567 58.1798L21.5451 60.0158C18.8641 62.4503 16.8544 65.5335 15.7092 68.969L8.56702 90.3956L31.3136 84.1515C34.9705 83.1476 38.2895 81.1773 40.9218 78.4475L41.9004 77.4327M23.567 58.1798L41.9004 77.4327" stroke="#E2661D" stroke-width="11.1111"/>
<path d="M90.1505 34.1573L67.8927 12.6475C67.4223 12.1928 67.4445 11.4322 67.9407 11.0058L79.2016 1.32769C84.7115 -0.766846 88.5613 1.15314 89.7975 2.37495L102.513 15.9894C104.632 18.9218 103.396 23.4948 102.513 25.4148L91.6213 34.2223C91.1849 34.5751 90.554 34.5472 90.1505 34.1573Z" fill="#E2661D"/>
</svg>
