<svg width="139" height="91" viewBox="0 0 139 91" fill="none" xmlns="http://www.w3.org/2000/svg">
<path d="M101.097 90.3957C102.487 83.7565 100.721 70.834 99.0911 67.0367C97.4611 63.2393 95.072 59.7889 92.0601 56.8826C89.0482 53.9762 85.4726 51.6707 81.5374 50.0978C77.6021 48.5249 73.3844 47.7153 69.1249 47.7153C64.8655 47.7153 60.6478 48.5249 56.7125 50.0978C52.7773 51.6707 49.2017 53.9762 46.1898 56.8826C43.1779 59.7889 40.7888 63.2393 39.1587 67.0367C37.5287 70.834 35.7632 87.0761 37.1532 90.3957H101.097Z" fill="#E2661D"/>
<path d="M87.6817 19.4164C87.6817 29.9211 79.3736 38.437 69.125 38.437C58.8764 38.437 50.5683 29.9211 50.5683 19.4164C50.5683 8.91157 58.8764 0.395752 69.125 0.395752C79.3736 0.395752 87.6817 8.91157 87.6817 19.4164Z" fill="#E2661D"/>
<path d="M38.5065 34.7256C38.5065 42.9245 31.86 49.571 23.6611 49.571C15.4623 49.571 8.81577 42.9245 8.81577 34.7256C8.81577 26.5268 15.4623 19.8803 23.6611 19.8803C31.86 19.8803 38.5065 26.5268 38.5065 34.7256Z" fill="#E2661D"/>
<path d="M129.434 34.7256C129.434 42.9245 122.788 49.571 114.589 49.571C106.39 49.571 99.7435 42.9245 99.7435 34.7256C99.7435 26.5268 106.39 19.8803 114.589 19.8803C122.788 19.8803 129.434 26.5268 129.434 34.7256Z" fill="#E2661D"/>
<path d="M0.00134277 90.3958H29.692C29.692 72.9525 32.4755 64.8803 33.8673 63.0246H16.2384C5.47557 62.6535 0.929177 74.6226 0.00134277 80.6535V90.3958Z" fill="#E2661D"/>
<path d="M138.249 89.9402H108.558C108.558 72.497 105.774 64.4248 104.383 62.5691H122.012C132.774 62.198 137.321 74.167 138.249 80.198V89.9402Z" fill="#E2661D"/>
</svg>
