<svg width="175" height="153" viewBox="0 0 175 153" fill="none" xmlns="http://www.w3.org/2000/svg">
<path fill-rule="evenodd" clip-rule="evenodd" d="M85.8506 58.1188C81.336 67.148 90.2398 75.6756 95.256 78.8107C90.7415 82.0711 82.2974 100.652 78.6397 109.535C73.6235 106.525 66.9352 112.043 64.2181 115.178C39.9039 111.749 27.4163 99.3371 20.1378 92.1027L20.0128 91.9784C19.5575 91.5259 19.0875 91.0629 18.606 90.5887L18.6026 90.5853L18.6003 90.583C12.1565 84.2362 3.6747 75.882 1.23626 63.8366C-0.947637 53.0487 0.135816 45.904 4.05993 35.6205C7.31734 27.0841 10.6493 22.4866 17.1913 16.1083C25.3081 8.19456 35.793 4.50826 42.8993 2.62714C48.1245 1.47759 61.9609 -0.445284 75.5046 1.05958C89.0484 2.56444 100.168 7.95686 104.034 10.465C108.946 13.1821 118.538 20.2297 121.277 24.8865C124.412 30.2164 125.04 32.4109 121.277 39.9352C118.268 45.9546 112.081 47.6684 109.364 47.7729C103.407 47.4594 90.3652 49.0897 85.8506 58.1188ZM68.2935 86.3351C68.2935 92.9148 62.5386 98.2486 55.4395 98.2486C48.3404 98.2486 42.5855 92.9148 42.5855 86.3351C42.5855 79.7555 48.3404 74.4217 55.4395 74.4217C62.5386 74.4217 68.2935 79.7555 68.2935 86.3351ZM20.3261 69.4055C27.4252 69.4055 33.1802 64.0716 33.1802 57.492C33.1802 50.9123 27.4252 45.5785 20.3261 45.5785C13.2271 45.5785 7.47211 50.9123 7.47211 57.492C7.47211 64.0716 13.2271 69.4055 20.3261 69.4055ZM45.7206 27.3947C45.7206 33.9744 39.9657 39.3082 32.8666 39.3082C25.7675 39.3082 20.0126 33.9744 20.0126 27.3947C20.0126 20.8151 25.7675 15.4812 32.8666 15.4812C39.9657 15.4812 45.7206 20.8151 45.7206 27.3947ZM68.6071 33.665C75.7062 33.665 81.4611 28.3312 81.4611 21.7516C81.4611 15.1719 75.7062 9.83807 68.6071 9.83807C61.508 9.83807 55.7531 15.1719 55.7531 21.7516C55.7531 28.3312 61.508 33.665 68.6071 33.665Z" fill="#E2661D"/>
<path d="M94.7383 87.9419L113.903 103.858C113.903 103.858 135.665 83.0697 171.72 22.0037C174.017 18.1058 176.268 9.01103 171.071 8.03657C166.913 7.25701 159.594 13.1254 156.454 16.157C153.595 17.1965 97.012 80.4709 94.7383 87.9419Z" fill="#E2661D"/>
<path d="M110.33 107.756L90.5156 94.4381L82.72 109.38C87.3974 109.38 93.7638 116.093 96.3624 119.449L110.33 107.756Z" fill="#E2661D"/>
<path d="M67.1286 121.398C59.8527 137.249 46.232 144.893 40.4935 146.734C49.5884 155.179 70.3768 153.555 82.7199 144.785C95.063 136.015 92.7893 129.843 92.7893 125.946C92.7893 121.398 87.917 116.526 80.4462 114.577C74.4695 113.018 68.6196 118.15 67.1286 121.398Z" fill="#E2661D"/>
</svg>
