<svg width="93" height="143" viewBox="0 0 93 143" fill="none" xmlns="http://www.w3.org/2000/svg">
<path d="M62.9028 5.91602H28.9416C28.3854 5.91602 28.0258 6.50396 28.2791 6.99914L31.7993 13.8801C32.3083 14.8751 33.3318 15.5011 34.4494 15.5011H58.0905C59.2991 15.5011 60.3877 14.7704 60.8455 13.6519L63.5916 6.94208C63.792 6.45248 63.4319 5.91602 62.9028 5.91602Z" stroke="#E2661D" stroke-width="5.2093"/>
<rect x="3.84593" y="4.11693" width="84.5581" height="134.238" rx="10.4186" stroke="#E2661D" stroke-width="7.44186"/>
<path fill-rule="evenodd" clip-rule="evenodd" d="M20.0543 31.676C17.1773 31.676 14.845 34.0083 14.845 36.8853V77.8156C14.845 80.6926 17.1773 83.0249 20.0543 83.0249H70.5697C73.4467 83.0249 75.779 80.6926 75.779 77.8156V36.8853C75.779 34.0083 73.4467 31.676 70.5697 31.676H20.0543ZM24.6683 76.5206H66.9827C68.6267 76.5206 69.9595 75.1879 69.9595 73.5439V53.9163C69.9595 53.2575 69.741 52.6174 69.3382 52.0962L64.1399 45.369L45.6544 64.1969L30.592 51.8732L22.1142 63.6117C21.8395 63.9921 21.6916 64.4495 21.6916 64.9188V73.5439C21.6916 75.1879 23.0243 76.5206 24.6683 76.5206Z" fill="#E2661D"/>
<path d="M45.8255 110.796H17.4124C13.9892 110.796 13.9892 116.615 17.4124 116.615H45.8255C50.2757 116.615 50.2757 110.796 45.8255 110.796Z" fill="#E2661D"/>
<path d="M58.4359 96.0759H17.0146C12.9067 97.7876 15.6453 102.238 17.0146 101.895H58.4359C62.2016 99.8415 60.4899 96.8747 58.4359 96.0759Z" fill="#E2661D"/>
</svg>
