<svg width="171" height="142" viewBox="0 0 171 142" fill="none" xmlns="http://www.w3.org/2000/svg">
<path d="M170.491 131.987V71.1156C152.738 78.4534 116.758 80.5659 100.987 80.7048V93.2126H69.5848V80.7048C24.0307 80.7048 4.54739 74.312 0.5 71.1156V131.987C0.5 140.325 8.59479 142.132 12.6422 141.993H158.767C165.801 141.993 169.514 135.322 170.491 131.987Z" fill="#E2661D"/>
<path d="M100.987 73.3148C157.595 73.3148 170.909 62.7771 170.491 58.6078V28.5893C167.56 19 159.604 19 155.836 19H120.247H48.65H12.6422C3.2634 20.3342 0.639572 25.9487 0.5 28.5893V61.9432C9.29262 71.1156 53.1161 74.0097 69.5848 73.3148V61.9432H100.987V73.3148Z" fill="#E2661D"/>
<path d="M103.5 19V10.9212C103.5 9.53126 102.785 6.6472 99.9255 6.23023C97.066 5.81326 80.1809 6.05649 72.0957 6.23023C70.5638 6.31707 67.5 7.37683 67.5 10.9212C67.5 14.4655 67.5 17.7839 67.5 19" stroke="#E2661D" stroke-width="11"/>
</svg>
